<svg width="29" height="27" viewBox="0 0 29 27" fill="none" xmlns="http://www.w3.org/2000/svg">
<path d="M9.08496 15.171L13.6571 10.6439M13.6571 10.6439L24.2897 1.68327C24.5613 1.45445 24.8685 1.27091 25.1995 1.13981L25.248 1.12064C26.5897 0.589229 27.921 1.90758 27.3844 3.23609L27.365 3.284C27.2327 3.61176 27.0473 3.91601 26.8162 4.18483L17.7662 14.7125M13.6571 10.6439C15.0268 10.7624 17.7662 11.742 17.7662 14.7125M12.3723 20.0533L17.7662 14.7125" stroke="#00171F" stroke-width="2" stroke-linecap="round" stroke-linejoin="round"/>
<path d="M3.40656 21.4633C2.88951 18.7486 5.02763 16.2426 7.86097 16.2426C10.3631 16.2426 12.3915 18.2194 12.3915 20.6577V21.0059C12.3915 23.6367 10.2031 25.7692 7.50368 25.7692H2.49575C2.01777 25.7692 1.8176 25.1743 2.20279 24.8985L3.52567 23.9512C3.71654 23.8147 3.81035 23.5837 3.76715 23.3566L3.40656 21.4633Z" stroke="#00171F" stroke-width="2" stroke-linecap="round" stroke-linejoin="round"/>
</svg>
