<svg width="189" height="56" viewBox="0 0 189 56" fill="none" xmlns="http://www.w3.org/2000/svg">
<path d="M33.7231 3.22673C33.7231 3.53775 33.6003 3.83603 33.3818 4.05596C33.1634 4.27589 32.8671 4.39945 32.5581 4.39946H23.2381C22.9292 4.39946 22.6328 4.27591 22.4144 4.05598C22.1959 3.83605 22.0731 3.53775 22.0731 3.22673C22.0731 2.9157 22.1959 2.6174 22.4144 2.39747C22.6328 2.17754 22.9292 2.05399 23.2381 2.05399H32.5581C32.8671 2.054 33.1634 2.17756 33.3818 2.39749C33.6003 2.61742 33.7231 2.9157 33.7231 3.22673ZM32.5581 53.6545H23.2381C22.9292 53.6545 22.6328 53.7781 22.4144 53.998C22.1959 54.2179 22.0731 54.5162 22.0731 54.8273C22.0731 55.1383 22.1959 55.4366 22.4144 55.6565C22.6328 55.8764 22.9292 56 23.2381 56H32.5581C32.8671 56 33.1634 55.8764 33.3819 55.6565C33.6003 55.4366 33.7231 55.1383 33.7231 54.8273C33.7231 54.5162 33.6003 54.2179 33.3819 53.998C33.1634 53.7781 32.8671 53.6545 32.5581 53.6545ZM51.198 2.05399H44.208C43.899 2.05399 43.6027 2.17754 43.3842 2.39747C43.1658 2.6174 43.043 2.9157 43.043 3.22673C43.043 3.53775 43.1658 3.83605 43.3842 4.05598C43.6027 4.27591 43.899 4.39946 44.208 4.39946H51.198C51.5068 4.39982 51.803 4.52349 52.0214 4.74334C52.2398 4.9632 52.3626 5.26128 52.363 5.5722V12.6085C52.363 12.9195 52.4857 13.2178 52.7042 13.4377C52.9227 13.6577 53.219 13.7812 53.528 13.7812C53.8369 13.7812 54.1333 13.6577 54.3517 13.4377C54.5702 13.2178 54.693 12.9195 54.693 12.6085V5.5722C54.6919 4.63944 54.3233 3.74519 53.6681 3.08563C53.0129 2.42606 52.1246 2.05505 51.198 2.05399ZM53.528 23.1632C53.219 23.1632 52.9227 23.2867 52.7042 23.5067C52.4857 23.7266 52.363 24.0249 52.363 24.3359V33.7178C52.363 34.0288 52.4857 34.3271 52.7042 34.5471C52.9227 34.767 53.219 34.8905 53.528 34.8905C53.8369 34.8905 54.1333 34.767 54.3517 34.5471C54.5702 34.3271 54.693 34.0288 54.693 33.7178V24.3359C54.6929 24.0249 54.5702 23.7266 54.3517 23.5067C54.1332 23.2867 53.8369 23.1632 53.528 23.1632ZM53.528 44.2725C53.219 44.2725 52.9227 44.396 52.7042 44.616C52.4857 44.8359 52.363 45.1342 52.363 45.4452V52.4818C52.3626 52.7927 52.2398 53.0908 52.0214 53.3106C51.803 53.5305 51.5068 53.6542 51.198 53.6545H44.208C43.899 53.6545 43.6027 53.7781 43.3842 53.998C43.1658 54.2179 43.043 54.5162 43.043 54.8273C43.043 55.1383 43.1658 55.4366 43.3842 55.6565C43.6027 55.8764 43.899 56 44.208 56H51.198C52.1246 55.9989 53.0129 55.6279 53.6681 54.9684C54.3233 54.3088 54.6919 53.4145 54.693 52.4818V45.4452C54.6929 45.1342 54.5702 44.8359 54.3517 44.616C54.1332 44.396 53.8369 44.2725 53.528 44.2725ZM2.26826 34.8905C2.57724 34.8905 2.87355 34.767 3.09202 34.547C3.3105 34.3271 3.43324 34.0288 3.43326 33.7178V24.3359C3.43326 24.0249 3.31052 23.7266 3.09204 23.5066C2.87356 23.2867 2.57724 23.1632 2.26826 23.1632C1.95929 23.1632 1.66297 23.2867 1.44449 23.5066C1.22601 23.7266 1.10327 24.0249 1.10327 24.3359V33.7178C1.10329 34.0288 1.22603 34.3271 1.44451 34.547C1.66298 34.767 1.95929 34.8905 2.26826 34.8905ZM11.5882 53.6545H4.59825C4.28938 53.6542 3.99327 53.5305 3.77487 53.3106C3.55646 53.0908 3.43361 52.7927 3.43326 52.4818V45.4452C3.43326 45.1342 3.31052 44.8359 3.09204 44.616C2.87356 44.396 2.57724 44.2725 2.26826 44.2725C1.95929 44.2725 1.66297 44.396 1.44449 44.616C1.22601 44.8359 1.10327 45.1342 1.10327 45.4452V52.4818C1.10433 53.4145 1.47289 54.3088 2.1281 54.9684C2.7833 55.6279 3.67165 55.9989 4.59825 56H11.5882C11.8972 56 12.1935 55.8764 12.412 55.6565C12.6305 55.4366 12.7532 55.1383 12.7532 54.8273C12.7532 54.5162 12.6305 54.2179 12.412 53.998C12.1935 53.7781 11.8972 53.6545 11.5882 53.6545ZM11.5882 2.05399H4.59825C3.67165 2.05505 2.7833 2.42606 2.1281 3.08563C1.47289 3.74519 1.10433 4.63944 1.10327 5.5722V12.6085C1.10327 12.9195 1.22601 13.2178 1.44449 13.4377C1.66297 13.6577 1.95929 13.7812 2.26826 13.7812C2.57724 13.7812 2.87356 13.6577 3.09204 13.4377C3.31052 13.2178 3.43326 12.9195 3.43326 12.6085V5.5722C3.43361 5.26128 3.55646 4.9632 3.77487 4.74334C3.99327 4.52349 4.28938 4.39982 4.59825 4.39946H11.5882C11.8972 4.39946 12.1935 4.27591 12.412 4.05598C12.6305 3.83605 12.7532 3.53775 12.7532 3.22673C12.7532 2.9157 12.6305 2.6174 12.412 2.39747C12.1935 2.17754 11.8972 2.05399 11.5882 2.05399Z" fill="#00171F"/>
<path d="M16.6589 36.8651L11.6565 31.7363M11.6565 31.7363L1.75501 19.8092C1.50217 19.5046 1.29936 19.16 1.15449 18.7887L1.1333 18.7343C0.546099 17.2292 2.00288 15.7358 3.47087 16.3377L3.52382 16.3595C3.886 16.5079 4.22219 16.7159 4.51924 16.9751L16.1523 27.1269M11.6565 31.7363C11.7874 30.1999 12.8698 27.1269 16.1523 27.1269M22.0538 33.1775L16.1523 27.1269" stroke="#00171F" stroke-width="2" stroke-linecap="round" stroke-linejoin="round"/>
<path d="M23.6119 43.2349C20.6121 43.8149 17.843 41.4165 17.843 38.2382C17.843 35.4315 20.0274 33.1561 22.7217 33.1561H23.1065C26.0135 33.1561 28.3699 35.6109 28.3699 38.639V44.2566C28.3699 44.7928 27.7125 45.0173 27.4078 44.5853L26.361 43.1013C26.2102 42.8872 25.9549 42.782 25.704 42.8304L23.6119 43.2349Z" stroke="#00171F" stroke-width="2" stroke-linecap="round" stroke-linejoin="round"/>
<path d="M41.4014 19.4808L47.3747 13.5769M47.3747 13.5769L61.2658 1.89107C61.6206 1.59267 62.0219 1.3533 62.4544 1.18233L62.5177 1.15732C64.2706 0.464302 66.01 2.1836 65.3089 3.91615L65.2836 3.97863C65.1107 4.40608 64.8685 4.80286 64.5666 5.15344L52.7431 18.8829M47.3747 13.5769C49.1641 13.7314 52.7431 15.0089 52.7431 18.8829M45.6961 25.8479L52.7431 18.8829" stroke="#00171F" stroke-width="2" stroke-linecap="round" stroke-linejoin="round"/>
<path d="M33.9826 27.6869C33.3071 24.1465 36.1005 20.8783 39.8022 20.8783C43.0711 20.8783 45.7211 23.4563 45.7211 26.6362V27.0903C45.7211 30.5212 42.8621 33.3023 39.3354 33.3023H32.7927C32.1682 33.3023 31.9067 32.5264 32.41 32.1667L34.1383 30.9314C34.3876 30.7533 34.5102 30.452 34.4537 30.1559L33.9826 27.6869Z" stroke="#00171F" stroke-width="2" stroke-linecap="round" stroke-linejoin="round"/>
<path d="M71.26 22.8511V20.1324H83.9842V22.8511H79.241V35.7284H76.0032V22.8511H71.26Z" fill="#00171F"/>
<path d="M89.6295 35.9568C88.4342 35.9568 87.4054 35.7131 86.543 35.2258C85.6856 34.7333 85.025 34.0378 84.561 33.1392C84.097 32.2355 83.865 31.1669 83.865 29.9332C83.865 28.73 84.097 27.674 84.561 26.7653C85.025 25.8565 85.6781 25.1483 86.5203 24.6406C87.3676 24.133 88.3611 23.8791 89.5009 23.8791C90.2674 23.8791 90.9811 24.0035 91.6417 24.2523C92.3074 24.496 92.8874 24.864 93.3816 25.3565C93.8809 25.8489 94.2693 26.4683 94.5466 27.2146C94.824 27.9558 94.9627 28.8239 94.9627 29.819V30.7099H85.151V28.6995H91.9292C91.9292 28.2325 91.8283 27.8187 91.6266 27.4583C91.4249 27.0978 91.145 26.816 90.7869 26.613C90.4339 26.4048 90.0228 26.3008 89.5538 26.3008C89.0646 26.3008 88.6309 26.415 88.2526 26.6434C87.8794 26.8668 87.5869 27.1689 87.3751 27.5496C87.1633 27.9253 87.0549 28.3442 87.0498 28.8061V30.7176C87.0498 31.2963 87.1557 31.7964 87.3676 32.2178C87.5844 32.6391 87.8895 32.964 88.2829 33.1925C88.6763 33.421 89.1428 33.5352 89.6824 33.5352C90.0405 33.5352 90.3683 33.4844 90.6658 33.3829C90.9634 33.2813 91.2181 33.129 91.4299 32.926C91.6417 32.7229 91.8031 32.4741 91.9141 32.1797L94.8946 32.3777C94.7433 33.0986 94.4332 33.7281 93.9641 34.2662C93.5002 34.7993 92.9 35.2156 92.1637 35.5151C91.4324 35.8096 90.5877 35.9568 89.6295 35.9568Z" fill="#00171F"/>
<path d="M100.379 35.9492C99.6378 35.9492 98.9771 35.8197 98.3972 35.5608C97.8172 35.2968 97.3583 34.9085 97.0204 34.3957C96.6875 33.8779 96.5211 33.2331 96.5211 32.4614C96.5211 31.8116 96.6396 31.2659 96.8766 30.8242C97.1137 30.3825 97.4364 30.0271 97.8449 29.758C98.2534 29.489 98.7174 29.2859 99.2369 29.1488C99.7614 29.0118 100.311 28.9153 100.886 28.8595C101.562 28.7884 102.106 28.7224 102.52 28.6615C102.934 28.5955 103.234 28.499 103.42 28.3721C103.607 28.2452 103.7 28.0573 103.7 27.8086V27.7629C103.7 27.2806 103.549 26.9074 103.246 26.6434C102.949 26.3794 102.525 26.2474 101.975 26.2474C101.395 26.2474 100.934 26.3769 100.591 26.6358C100.248 26.8897 100.021 27.2095 99.9101 27.5953L96.9296 27.3516C97.0809 26.6409 97.3784 26.0266 97.8222 25.5088C98.266 24.9859 98.8384 24.5848 99.5395 24.3056C100.246 24.0213 101.063 23.8791 101.99 23.8791C102.636 23.8791 103.254 23.9553 103.844 24.1076C104.439 24.2599 104.966 24.496 105.425 24.8158C105.889 25.1356 106.255 25.5468 106.522 26.0495C106.789 26.547 106.923 27.1435 106.923 27.839V35.7284H103.867V34.1063H103.776C103.589 34.4719 103.34 34.7942 103.027 35.0735C102.714 35.3476 102.338 35.5634 101.9 35.7207C101.461 35.873 100.954 35.9492 100.379 35.9492ZM101.302 33.7103C101.776 33.7103 102.195 33.6164 102.558 33.4286C102.921 33.2357 103.206 32.9767 103.413 32.6518C103.619 32.3269 103.723 31.9588 103.723 31.5476V30.3063C103.622 30.3723 103.483 30.4333 103.307 30.4891C103.135 30.5399 102.941 30.5881 102.724 30.6338C102.507 30.6744 102.291 30.7125 102.074 30.748C101.857 30.7785 101.66 30.8064 101.484 30.8318C101.105 30.8876 100.775 30.9765 100.493 31.0983C100.21 31.2202 99.9908 31.3852 99.8345 31.5933C99.6782 31.7964 99.6 32.0502 99.6 32.3548C99.6 32.7965 99.7588 33.1341 100.077 33.3676C100.399 33.5961 100.808 33.7103 101.302 33.7103Z" fill="#00171F"/>
<path d="M109.423 35.7284V24.0314H112.494V26.0951H112.631C112.873 25.4098 113.276 24.8691 113.841 24.4731C114.406 24.0771 115.082 23.8791 115.868 23.8791C116.665 23.8791 117.343 24.0797 117.903 24.4807C118.463 24.8767 118.836 25.4149 119.023 26.0951H119.144C119.381 25.425 119.81 24.8894 120.43 24.4883C121.055 24.0822 121.794 23.8791 122.646 23.8791C123.731 23.8791 124.611 24.2269 125.287 24.9224C125.967 25.6128 126.308 26.5927 126.308 27.8619V35.7284H123.093V28.5015C123.093 27.8517 122.921 27.3643 122.578 27.0394C122.235 26.7145 121.807 26.5521 121.292 26.5521C120.707 26.5521 120.251 26.7399 119.923 27.1156C119.595 27.4862 119.431 27.9761 119.431 28.5853V35.7284H116.307V28.433C116.307 27.8593 116.143 27.4024 115.815 27.0623C115.493 26.7221 115.066 26.5521 114.537 26.5521C114.179 26.5521 113.856 26.6434 113.569 26.8262C113.286 27.0039 113.062 27.2552 112.895 27.5801C112.729 27.8999 112.646 28.2756 112.646 28.7072V35.7284H109.423Z" fill="#00171F"/>
<path d="M128.914 35.7284V20.1324H135.117C136.257 20.1324 137.208 20.3025 137.969 20.6427C138.731 20.9828 139.303 21.455 139.686 22.0591C140.07 22.6582 140.261 23.3486 140.261 24.1304C140.261 24.7396 140.14 25.2752 139.898 25.7372C139.656 26.1941 139.323 26.5698 138.9 26.8643C138.481 27.1537 138.002 27.3593 137.462 27.4811V27.6334C138.052 27.6588 138.605 27.8263 139.119 28.136C139.638 28.4457 140.06 28.8798 140.382 29.4382C140.705 29.9916 140.866 30.6516 140.866 31.4182C140.866 32.2457 140.662 32.9844 140.254 33.6342C139.85 34.2789 139.253 34.7892 138.461 35.1648C137.669 35.5405 136.693 35.7284 135.533 35.7284H128.914ZM132.19 33.0326H134.86C135.773 33.0326 136.438 32.8574 136.857 32.5071C137.276 32.1518 137.485 31.6796 137.485 31.0907C137.485 30.6592 137.382 30.2784 137.175 29.9484C136.968 29.6184 136.673 29.3595 136.29 29.1717C135.911 28.9838 135.46 28.8899 134.936 28.8899H132.19V33.0326ZM132.19 26.6587H134.618C135.067 26.6587 135.465 26.58 135.813 26.4226C136.166 26.2601 136.444 26.0317 136.645 25.7372C136.852 25.4428 136.955 25.0899 136.955 24.6787C136.955 24.1152 136.756 23.6608 136.358 23.3156C135.964 22.9704 135.405 22.7978 134.678 22.7978H132.19V26.6587Z" fill="#00171F"/>
<path d="M142.937 35.7284V24.0314H146.062V26.0723H146.183C146.395 25.3463 146.75 24.798 147.249 24.4274C147.749 24.0517 148.324 23.8639 148.974 23.8639C149.136 23.8639 149.31 23.874 149.496 23.8944C149.683 23.9147 149.847 23.9426 149.988 23.9781V26.8567C149.837 26.811 149.627 26.7704 149.36 26.7348C149.093 26.6993 148.848 26.6815 148.626 26.6815C148.152 26.6815 147.728 26.7856 147.355 26.9937C146.987 27.1968 146.695 27.4811 146.478 27.8466C146.266 28.2122 146.16 28.6335 146.16 29.1108V35.7284H142.937Z" fill="#00171F"/>
<path d="M159.105 30.748V24.0314H162.328V35.7284H159.234V33.6037H159.113C158.851 34.2891 158.414 34.8399 157.804 35.2562C157.199 35.6725 156.46 35.8807 155.588 35.8807C154.811 35.8807 154.128 35.703 153.538 35.3476C152.948 34.9922 152.486 34.4871 152.153 33.8322C151.825 33.1773 151.659 32.3929 151.654 31.4791V24.0314H154.877V30.9003C154.882 31.5908 155.066 32.1365 155.429 32.5376C155.792 32.9387 156.279 33.1392 156.889 33.1392C157.277 33.1392 157.64 33.0503 157.978 32.8727C158.316 32.6899 158.588 32.4208 158.795 32.0655C159.007 31.7101 159.11 31.2709 159.105 30.748Z" fill="#00171F"/>
<path d="M174.574 27.3669L171.623 27.5496C171.573 27.2958 171.465 27.0673 171.298 26.8643C171.132 26.6561 170.912 26.4911 170.64 26.3693C170.373 26.2424 170.052 26.1789 169.679 26.1789C169.18 26.1789 168.759 26.2855 168.416 26.4987C168.073 26.7069 167.901 26.9861 167.901 27.3364C167.901 27.6156 168.012 27.8517 168.234 28.0446C168.456 28.2375 168.837 28.3924 169.377 28.5092L171.48 28.9356C172.609 29.1691 173.452 29.5448 174.006 30.0627C174.561 30.5805 174.838 31.2608 174.838 32.1035C174.838 32.8701 174.614 33.5428 174.165 34.1216C173.721 34.7003 173.111 35.1521 172.335 35.4771C171.563 35.7969 170.673 35.9568 169.664 35.9568C168.126 35.9568 166.9 35.6344 165.988 34.9897C165.08 34.3399 164.548 33.4565 164.391 32.3396L167.561 32.1721C167.657 32.6442 167.889 33.0047 168.257 33.2534C168.625 33.4971 169.097 33.6189 169.672 33.6189C170.237 33.6189 170.69 33.5098 171.033 33.2915C171.381 33.0681 171.558 32.7813 171.563 32.431C171.558 32.1365 171.434 31.8954 171.192 31.7075C170.95 31.5146 170.577 31.3674 170.073 31.2659L168.06 30.8623C166.926 30.6338 166.081 30.2378 165.526 29.6743C164.976 29.1108 164.702 28.3924 164.702 27.5192C164.702 26.7678 164.903 26.1205 165.307 25.5773C165.715 25.0341 166.288 24.6153 167.024 24.3208C167.765 24.0263 168.633 23.8791 169.626 23.8791C171.094 23.8791 172.249 24.1913 173.091 24.8158C173.938 25.4402 174.433 26.2906 174.574 27.3669Z" fill="#00171F"/>
<path d="M180.09 28.9661V35.7284H176.868V20.1324H180V26.0951H180.136C180.398 25.4047 180.822 24.864 181.407 24.4731C181.992 24.0771 182.726 23.8791 183.608 23.8791C184.415 23.8791 185.119 24.0568 185.719 24.4122C186.324 24.7625 186.793 25.2676 187.126 25.9276C187.464 26.5825 187.63 27.3669 187.625 28.2807V35.7284H184.402V28.8595C184.407 28.1386 184.226 27.5776 183.858 27.1765C183.495 26.7754 182.985 26.5749 182.33 26.5749C181.891 26.5749 181.503 26.6688 181.165 26.8567C180.832 27.0445 180.57 27.3186 180.378 27.6791C180.191 28.0345 180.095 28.4635 180.09 28.9661Z" fill="#00171F"/>
</svg>
